<?xml version="1.0" standalone="no"?>
<!DOCTYPE svg PUBLIC "-//W3C//DTD SVG 20010904//EN"
 "http://www.w3.org/TR/2001/REC-SVG-20010904/DTD/svg10.dtd">
<svg version="1.0" xmlns="http://www.w3.org/2000/svg"
 width="560.000000pt" height="300.000000pt" viewBox="0 0 560.000000 300.000000"
 preserveAspectRatio="xMidYMid meet">
<metadata>
Created by potrace 1.15, written by Peter Selinger 2001-2017
</metadata>
<g transform="translate(0.000000,300.000000) scale(0.100000,-0.100000)"
fill="#000000" stroke="none">
<path d="M0 2110 l0 -890 28 -1 27 -1 -30 -9 c-21 -6 -8 -7 40 -4 52 4 77 1
95 -11 23 -14 18 -15 -70 -10 -79 4 -87 3 -50 -5 25 -6 85 -8 135 -5 60 3 82
2 65 -4 -19 -7 -13 -8 22 -4 26 3 56 0 68 -6 11 -6 46 -15 77 -21 32 -6 63
-15 68 -19 6 -5 39 -13 75 -19 35 -6 66 -14 69 -19 3 -5 31 -12 61 -16 30 -4
64 -13 75 -20 11 -8 44 -17 73 -21 28 -4 54 -11 57 -15 3 -4 29 -11 58 -15 28
-4 62 -13 73 -20 12 -8 46 -17 75 -21 30 -3 59 -12 64 -19 6 -7 39 -14 73 -17
37 -2 67 -10 72 -17 4 -8 13 -10 19 -7 17 11 121 -17 121 -31 0 -8 13 -13 35
-13 22 0 38 -6 41 -15 4 -8 12 -15 20 -15 8 0 22 -9 31 -20 10 -11 30 -20 45
-20 18 0 28 -5 28 -15 0 -10 10 -15 30 -15 20 0 30 -5 30 -15 0 -9 9 -15 25
-15 16 0 25 -6 25 -15 0 -10 10 -15 30 -15 17 0 33 -6 36 -14 3 -8 18 -16 35
-20 17 -3 29 -12 29 -21 0 -10 10 -15 34 -15 21 0 36 -6 40 -15 3 -8 17 -15
31 -15 16 0 25 -6 25 -15 0 -10 10 -15 30 -15 20 0 30 -5 30 -15 0 -10 10 -15
29 -15 16 0 31 -6 35 -15 3 -8 16 -15 30 -15 13 0 26 -7 30 -15 3 -8 17 -15
31 -15 16 0 25 -6 25 -15 0 -8 -4 -15 -10 -15 -5 0 -10 -7 -10 -15 0 -8 7 -15
15 -15 27 0 31 -34 22 -168 l-10 -134 -38 4 c-20 2 -35 0 -33 -4 3 -5 32 -8
65 -8 38 0 58 4 54 10 -3 6 0 13 9 16 21 8 32 64 15 75 -9 5 -10 9 -2 9 6 0 9
9 6 23 -4 21 -4 22 11 3 9 -11 14 -28 10 -38 -3 -11 9 -32 37 -63 44 -47 66
-54 61 -17 -4 28 17 29 60 3 35 -22 48 -19 48 8 0 23 -35 55 -50 46 -7 -4 -14
2 -17 14 -3 12 -12 21 -20 21 -10 0 -14 9 -11 31 3 29 -1 33 -36 45 -21 8 -42
11 -47 8 -13 -7 -69 5 -69 16 0 4 22 6 49 4 28 -3 52 0 56 6 3 6 -4 11 -17 11
-13 1 -30 3 -38 4 -8 1 -25 3 -37 4 -14 0 -23 8 -23 17 0 17 41 15 78 -5 11
-6 27 -11 34 -11 7 1 3 6 -9 13 -12 7 -22 16 -22 21 0 4 -14 17 -32 28 l-33
20 22 18 c12 10 22 22 22 28 0 5 8 16 19 26 16 15 19 15 31 1 7 -8 19 -15 28
-15 12 0 14 -11 8 -65 -6 -61 -5 -65 14 -65 11 0 23 -7 26 -15 4 -8 17 -15 30
-15 15 0 24 -6 24 -15 0 -9 9 -15 25 -15 16 0 25 -6 25 -15 0 -8 5 -15 10 -15
6 0 27 -17 48 -38 20 -21 48 -42 61 -48 22 -9 23 -11 7 -27 -16 -16 -16 -17
12 -17 38 0 46 9 26 31 -14 16 -7 17 125 13 80 -3 142 -1 145 5 3 5 2 19 -2
31 -5 13 -4 37 2 56 12 36 30 42 69 23 20 -9 20 -9 5 4 -23 18 -23 23 2 30 11
3 20 10 20 17 0 6 -5 8 -11 4 -6 -3 -22 6 -36 22 l-25 29 16 -27 c18 -31 20
-38 7 -38 -5 0 -16 15 -24 33 -9 18 -39 53 -67 77 -27 24 -50 48 -50 53 0 6 7
2 15 -9 15 -19 15 -19 8 1 -3 11 -10 22 -14 25 -4 3 -9 16 -10 29 -4 24 29 58
62 65 62 14 80 20 90 32 6 8 20 14 30 14 23 0 24 13 3 31 -10 8 -18 9 -22 3
-4 -6 -24 -10 -45 -9 -23 1 -33 -1 -25 -6 9 -6 6 -9 -10 -9 -31 0 -38 25 -19
66 24 49 8 42 -39 -18 -27 -35 -49 -80 -65 -130 -13 -43 -26 -78 -30 -78 -6 0
3 62 16 110 5 19 4 21 -4 10 -8 -12 -11 -12 -17 3 -4 10 -2 28 4 41 5 12 7 35
5 51 -5 26 -4 27 21 23 33 -7 35 8 2 16 -23 6 -24 8 -14 43 12 44 22 53 62 53
28 0 29 -1 10 -15 -19 -14 -19 -14 3 -15 12 0 25 5 28 10 9 14 41 12 54 -3 8
-10 7 -17 -1 -25 -23 -23 2 -12 87 39 48 28 89 58 91 67 9 29 20 46 32 50 8 2
7 -8 -3 -32 -13 -32 -13 -35 3 -40 9 -3 4 -4 -11 -2 -20 2 -27 0 -23 -10 3 -7
-6 -23 -19 -36 -14 -13 -25 -26 -25 -30 0 -11 44 1 55 14 6 7 23 11 39 10 26
-3 28 -2 17 11 -8 11 -9 21 -2 34 17 32 30 83 25 97 -3 8 0 17 6 21 6 4 11 1
9 -6 -3 -27 1 -40 12 -34 6 4 8 9 5 13 -3 3 2 11 12 19 16 12 16 13 0 7 -19
-6 -24 10 -12 40 4 11 13 14 30 10 15 -4 24 -2 24 5 0 6 -5 10 -11 8 -6 -1
-15 8 -20 21 -7 19 -3 26 29 47 50 33 119 44 128 20 4 -10 1 -21 -7 -26 -11
-7 -11 -9 -1 -9 9 0 11 -7 7 -22 -11 -37 -85 -146 -116 -173 -16 -13 -29 -29
-29 -35 0 -6 -4 -9 -8 -6 -23 14 -150 -162 -154 -213 -1 -18 -8 -37 -15 -43
-7 -6 -13 -16 -13 -23 0 -22 -28 -25 -33 -4 -3 10 -10 19 -16 19 -15 0 -33
-48 -26 -70 4 -12 -1 -20 -17 -25 l-23 -7 23 -6 c17 -5 31 -26 54 -81 20 -46
38 -75 49 -78 11 -3 17 -9 14 -13 -3 -5 -1 -11 5 -15 21 -13 10 -27 -17 -20
-27 6 -27 6 -8 -9 19 -15 19 -17 3 -26 -14 -8 -15 -16 -8 -36 5 -13 9 -30 7
-37 -1 -7 10 -13 26 -15 15 -2 27 0 28 5 0 4 2 17 4 28 3 11 -5 32 -16 48 -18
24 -18 28 -4 33 9 4 14 13 11 20 -3 8 0 14 6 14 7 0 6 5 -2 15 -7 8 -19 15
-26 15 -8 0 -14 7 -14 15 0 8 3 14 8 12 4 -1 8 3 9 8 1 6 -9 9 -23 8 -13 -1
-24 -1 -24 0 0 1 -9 26 -19 55 -22 58 -6 69 16 11 12 -32 13 -32 7 -4 -16 84
-16 105 -1 105 9 0 25 -19 35 -44 23 -51 55 -183 47 -195 -2 -5 5 -11 16 -14
12 -3 18 -10 15 -16 -4 -5 4 -11 16 -13 14 -2 25 -14 31 -33 6 -16 17 -35 26
-42 14 -10 14 -13 -3 -32 -23 -26 -36 -27 -37 -3 0 11 -2 12 -6 4 -3 -7 2 -21
11 -31 22 -24 128 -55 160 -47 33 8 34 30 1 24 -13 -3 -22 -2 -20 2 3 4 -6 10
-20 12 -14 3 -25 1 -25 -3 0 -5 -8 -9 -17 -9 -14 0 -15 2 -4 9 8 5 9 11 3 15
-6 3 -13 2 -17 -3 -3 -6 -12 -8 -20 -5 -11 5 -12 10 -2 25 7 11 18 17 25 14
17 -6 106 -13 357 -25 110 -6 242 -13 293 -16 l92 -7 0 56 c0 46 3 55 15 51
19 -8 21 -90 3 -97 -16 -5 43 -14 150 -23 l83 -6 -2 -52 c-3 -50 -1 -52 31
-48 6 1 10 16 10 33 0 17 4 28 10 24 6 -3 10 -20 10 -36 0 -18 4 -28 10 -24 6
3 10 15 10 25 0 11 9 20 23 23 18 4 17 5 -6 6 -18 1 -27 6 -24 14 2 6 0 21 -6
31 -8 16 -6 18 8 13 9 -4 21 -7 26 -7 5 0 9 -9 9 -19 0 -11 9 -21 24 -25 14
-3 29 -18 36 -36 9 -23 19 -30 39 -30 l26 1 -31 27 c-42 36 -61 72 -39 72 9 0
14 4 11 8 -11 18 56 12 72 -6 14 -16 52 -23 230 -42 117 -12 273 -30 345 -39
73 -10 194 -19 270 -20 l137 -2 0 1500 0 1501 -2800 0 -2800 0 0 -890z m636
853 c-5 -16 2 -18 75 -15 44 1 89 7 99 12 25 13 30 13 26 -2 -3 -7 -7 -25 -10
-40 -4 -16 -12 -28 -20 -28 -8 0 -13 -11 -13 -25 0 -15 5 -25 14 -25 8 0 11 5
8 10 -10 16 45 12 61 -5 9 -8 22 -15 30 -15 8 0 14 7 14 15 0 8 5 15 11 15 8
0 8 5 -1 15 -11 13 -9 15 13 13 20 -2 24 -6 17 -18 -6 -12 -1 -20 21 -33 29
-16 30 -16 24 3 -7 22 0 24 64 20 35 -2 66 -22 53 -34 -3 -4 1 -4 11 0 9 3 14
10 11 15 -13 22 31 6 58 -21 16 -16 34 -30 39 -30 5 0 7 -10 5 -22 -3 -19 -9
-23 -37 -21 -19 1 -78 4 -131 7 -75 3 -107 9 -139 25 -23 12 -44 19 -47 16 -3
-3 -1 -5 5 -5 5 0 20 -9 33 -20 13 -11 33 -20 46 -20 13 0 25 -4 28 -9 3 -5
23 -12 43 -16 21 -4 41 -9 45 -11 12 -8 -3 -34 -19 -34 -9 0 -13 -6 -9 -15 3
-9 -2 -31 -11 -50 -13 -27 -14 -40 -5 -59 6 -13 8 -33 5 -45 -4 -15 3 -25 28
-40 19 -12 28 -21 20 -21 -8 0 -19 -7 -26 -17 -15 -21 -38 -8 -30 18 9 26 -1
24 -30 -7 -21 -23 -26 -24 -31 -10 -3 9 -4 28 -2 41 4 17 1 25 -8 25 -8 0 -14
-6 -14 -14 0 -8 -7 -17 -16 -20 -13 -5 -14 -1 -9 24 7 31 -2 39 -23 18 -9 -9
-12 -7 -12 10 0 25 0 25 35 12 20 -8 29 -6 45 10 11 11 20 30 20 42 0 28 -22
91 -35 101 -6 4 -5 10 3 15 10 7 10 11 -3 22 -13 11 -14 10 -9 -5 8 -20 -5
-15 -39 13 -15 14 -21 13 -52 -4 -42 -22 -51 -55 -31 -111 8 -23 12 -50 9 -62
-7 -27 -33 -15 -33 15 0 13 -4 24 -10 24 -5 0 -10 -5 -10 -11 0 -6 -6 -9 -12
-6 -7 2 -12 11 -10 20 3 18 -14 32 -23 18 -8 -14 -35 -2 -35 16 0 9 -6 13 -15
9 -8 -3 -15 -2 -15 3 0 16 13 19 36 9 27 -12 50 1 64 37 9 22 -22 65 -47 65
-28 0 -71 -30 -77 -55 -4 -14 -11 -25 -17 -25 -8 0 -8 4 0 14 9 11 9 16 0 22
-8 4 -9 3 -5 -4 10 -17 -20 -15 -37 2 -8 8 -17 35 -20 61 -6 40 -3 49 20 75
36 41 47 38 22 -5 -12 -20 -16 -35 -10 -35 6 0 11 7 11 15 0 9 6 12 15 9 10
-4 15 0 15 15 0 22 16 29 22 10 2 -6 15 -2 30 11 22 16 32 19 47 11 27 -15 30
-14 24 8 -3 14 2 21 19 27 22 7 22 7 3 15 -35 14 -47 10 -40 -11 7 -22 -20
-29 -28 -7 -4 7 -6 6 -6 -4 -1 -16 -41 -35 -41 -19 0 4 -9 6 -19 3 -21 -5 -48
27 -56 67 -3 16 0 20 10 16 8 -3 15 -1 15 4 0 6 3 10 6 10 3 0 3 -8 0 -17z
m707 -261 c-19 -12 -21 -62 -2 -62 5 0 8 4 5 9 -3 5 1 11 9 15 9 3 12 12 8 23
-6 16 -5 16 8 3 9 -8 18 -29 22 -45 3 -17 4 -24 1 -17 -10 22 -21 13 -27 -23
-3 -20 -16 -45 -29 -55 -13 -11 -17 -19 -10 -20 17 0 15 -20 -3 -20 -8 0 -15
-4 -15 -10 0 -5 5 -10 11 -10 5 0 7 -5 4 -11 -11 -16 -12 -70 -2 -76 4 -3 12
-15 17 -28 5 -13 21 -29 36 -37 31 -15 43 -38 20 -38 -9 0 -23 11 -32 25 -9
13 -25 27 -36 30 -10 4 -24 17 -30 31 -6 13 -15 21 -20 18 -4 -3 -6 -10 -3
-15 4 -5 3 -9 -2 -9 -16 0 -8 173 10 207 9 18 17 44 17 59 0 27 38 80 49 68 3
-3 0 -8 -6 -12z m2202 -58 c8 -10 15 -36 15 -57 0 -29 5 -40 18 -44 14 -3 17
-12 14 -37 -2 -20 2 -39 10 -47 8 -7 13 -23 10 -35 -4 -24 -41 -39 -56 -24
-15 15 -20 13 -45 -20 l-22 -31 55 4 c31 2 56 2 56 -1 0 -12 -34 -42 -47 -42
-8 0 -21 -7 -29 -15 -9 -8 -11 -15 -5 -15 6 0 11 -4 11 -8 0 -5 -13 -8 -30 -8
-22 0 -30 4 -30 18 0 23 -5 23 -32 -4 -15 -15 -17 -20 -5 -15 15 6 15 3 0 -29
-13 -27 -19 -31 -25 -20 -8 14 -14 14 -55 0 -16 -5 -15 -7 5 -15 13 -5 28 -6
34 -3 5 4 4 -4 -3 -17 -12 -21 -14 -22 -17 -5 -3 14 -10 17 -33 12 -22 -4 -29
-2 -29 10 0 8 7 17 15 20 23 9 7 24 -25 24 -23 0 -27 4 -23 19 3 14 0 19 -13
18 -10 -1 -19 3 -19 10 0 7 -9 19 -19 26 -23 17 -23 16 62 116 28 34 52 55 52
47 0 -9 9 -25 19 -35 15 -15 28 -18 60 -14 46 6 61 20 40 35 -12 8 -12 10 0
15 11 5 11 7 0 15 -11 7 -11 11 -1 15 24 9 12 23 -15 17 -32 -8 -47 -27 -52
-64 0 -5 -6 -10 -12 -10 -13 0 -1 63 13 69 5 1 2 8 -7 15 -13 10 -11 17 20 61
38 52 54 67 67 59 4 -3 8 -1 8 5 0 17 50 5 65 -15z m678 -372 c10 -11 14 -26
10 -40 -3 -15 0 -24 11 -28 17 -7 23 -54 6 -54 -5 0 -13 -12 -16 -27 -4 -16
-9 -32 -13 -38 -3 -5 -6 -12 -6 -15 -1 -11 -90 -140 -97 -140 -12 0 -21 42
-10 49 14 9 26 71 13 71 -5 0 -13 -9 -16 -20 -3 -11 -11 -20 -17 -20 -6 0 -9
3 -6 6 9 8 -42 55 -52 49 -5 -3 -12 -26 -16 -50 -3 -25 -10 -45 -16 -45 -5 0
-8 -6 -7 -12 1 -7 -2 -28 -6 -46 -5 -24 -11 -30 -18 -23 -6 6 -19 11 -29 11
-10 0 -18 5 -18 11 0 5 -4 7 -10 4 -5 -3 -10 1 -10 10 0 8 -7 18 -15 21 -12 5
-13 10 -4 20 6 8 9 20 6 28 -4 10 -1 13 9 9 9 -3 14 1 14 12 0 9 -4 13 -10 10
-13 -8 -13 8 -1 21 5 5 11 20 13 33 2 14 11 25 22 27 10 1 28 12 40 23 13 12
26 18 29 14 4 -3 7 -1 7 5 0 6 -4 14 -10 17 -14 8 10 44 26 38 7 -2 11 3 11
14 -2 12 6 19 23 21 14 2 30 8 37 14 7 5 18 6 24 2 8 -4 9 -3 5 4 -4 7 -3 12
1 12 5 0 17 -14 27 -31 21 -36 48 -35 53 4 3 20 -1 27 -12 27 -9 0 -13 5 -10
10 9 15 20 12 38 -8z m-1190 -89 c-9 -16 -26 -38 -37 -50 -34 -40 -11 -35 33
7 23 22 50 40 61 40 10 0 22 5 25 10 10 16 45 12 45 -6 0 -9 10 -25 23 -36 12
-11 15 -17 7 -13 -9 4 -8 1 3 -8 14 -12 26 -13 50 -6 18 5 48 9 67 8 32 0 33
-1 12 -10 -13 -5 -20 -13 -17 -19 3 -5 2 -10 -4 -10 -5 0 -11 5 -13 11 -8 24
-45 -4 -113 -83 -38 -45 -64 -79 -57 -74 14 8 12 -20 -2 -43 -5 -8 -3 -16 5
-22 20 -13 29 -11 23 4 -2 7 8 24 23 37 25 22 26 24 7 31 -18 7 -18 8 4 15 22
6 26 15 22 43 -1 12 1 12 12 3 19 -15 85 39 73 59 -6 11 -5 11 5 2 10 -10 19
-8 39 6 39 26 68 24 74 -5 5 -30 -6 -39 -27 -19 -13 14 -19 10 -57 -30 -30
-32 -48 -44 -61 -39 -10 3 -18 1 -18 -5 0 -10 5 -12 37 -15 7 -1 19 -10 26
-20 17 -24 34 -15 42 24 4 17 11 30 16 30 15 0 50 30 73 64 10 15 19 17 41 12
21 -5 25 -10 16 -16 -8 -4 -10 -13 -7 -19 4 -7 -1 -11 -12 -11 -11 0 -34 -16
-51 -35 -17 -19 -34 -35 -39 -35 -4 0 -18 -9 -31 -21 l-22 -21 20 -22 c12 -12
21 -26 21 -30 0 -10 23 -30 36 -33 6 -1 21 17 34 40 29 52 53 77 104 111 42
28 88 38 48 10 -12 -8 -22 -22 -22 -30 0 -8 -6 -14 -13 -14 -34 0 -92 -97 -83
-141 3 -15 2 -29 -2 -31 -16 -7 -46 -80 -35 -86 17 -11 22 -63 7 -69 -8 -3
-11 -9 -8 -14 3 -5 10 -7 15 -3 6 3 19 -3 30 -15 32 -34 42 -26 36 24 -7 49
-6 50 24 34 16 -8 19 -16 13 -42 l-6 -32 31 35 c36 41 41 65 11 57 -24 -6 -26
6 -4 27 19 20 25 20 18 3 -6 -17 20 -40 49 -44 26 -4 87 -66 87 -89 0 -12 -5
-10 -21 10 -11 14 -25 26 -32 26 -6 0 -2 -6 9 -14 10 -8 19 -19 19 -24 0 -6
20 -25 44 -42 l44 -32 -5 -104 c-3 -57 -1 -104 4 -104 4 0 8 3 9 8 0 4 3 21 5
37 2 17 6 49 10 72 5 42 18 61 28 44 3 -4 2 -50 -3 -100 -8 -88 3 -170 35
-251 5 -14 27 18 49 70 21 50 61 118 64 109 2 -6 -4 -39 -14 -74 -11 -43 -14
-69 -7 -82 12 -22 5 -43 -14 -43 -8 0 -14 -7 -14 -15 0 -8 9 -15 20 -15 24 0
25 -14 5 -70 -23 -65 -19 -68 31 -20 49 48 74 88 74 117 0 16 9 19 55 21 48 2
58 -1 88 -28 35 -30 57 -88 57 -147 -1 -25 -29 -73 -44 -73 -10 0 6 85 18 93
8 5 8 9 0 15 -16 9 -21 43 -10 61 6 10 5 12 -2 7 -8 -4 -10 -2 -6 7 3 9 -8 24
-28 38 -18 13 -27 16 -21 8 7 -9 9 -20 5 -24 -4 -5 -1 -5 6 -1 6 4 12 4 13 -1
0 -4 2 -28 5 -53 4 -42 4 -44 -11 -26 -14 19 -15 17 -15 -21 0 -23 -4 -45 -10
-48 -5 -3 -10 -1 -10 6 0 7 -6 5 -14 -6 -7 -10 -11 -27 -8 -38 8 -33 -22 -15
-33 20 -6 16 -16 37 -23 46 -15 18 -44 16 -50 -3 -3 -7 0 -10 6 -6 19 11 42
-23 38 -56 -5 -38 24 -105 36 -86 4 7 8 24 8 37 0 19 3 21 14 12 10 -9 16 -8
26 4 7 8 19 15 26 15 33 0 -30 -89 -64 -90 -7 0 -12 -8 -11 -17 1 -10 1 -32 0
-50 -1 -42 -26 -35 -41 12 -6 18 -17 36 -25 39 -8 3 -15 11 -15 18 0 9 3 8 10
-2 6 -9 10 -10 10 -3 0 7 -6 16 -13 20 -7 4 -19 23 -26 41 -8 17 -18 32 -24
32 -5 0 2 9 17 21 14 11 30 18 36 14 6 -3 7 0 4 9 -8 20 -13 20 -34 1 -24 -22
-56 -7 -111 52 -37 39 -50 47 -61 39 -8 -6 -13 -16 -11 -23 3 -7 -3 -10 -15
-6 -11 2 -23 0 -26 -6 -4 -6 -32 -11 -62 -11 -45 0 -59 4 -80 25 -23 23 -24
26 -9 42 15 15 15 17 1 25 -9 5 -25 6 -36 3 -11 -4 -20 -3 -21 2 -15 121 7
183 62 171 7 -2 15 6 17 17 2 11 9 25 14 30 8 7 8 6 3 -4 -5 -9 -3 -12 6 -9 8
3 16 13 18 24 4 25 30 54 49 54 9 0 12 6 8 16 -3 9 -6 32 -6 52 l-1 37 -14
-25 c-13 -23 -14 -23 -15 -5 0 12 4 25 10 31 6 6 -1 11 -21 12 -17 1 -41 8
-53 14 -21 12 -21 12 4 19 17 5 19 7 7 8 -26 1 -34 31 -12 47 18 14 18 14 -1
14 -12 0 -15 3 -7 8 13 9 14 52 0 52 -5 0 -15 -7 -23 -15 -9 -8 -13 -15 -9
-15 3 0 0 -6 -7 -14 -7 -8 -15 -14 -18 -14 -18 1 -30 -5 -54 -27 -15 -14 -25
-29 -22 -33 14 -23 -95 43 -137 83 -27 25 -53 45 -57 45 -5 0 -11 4 -14 9 -4
5 3 7 14 4 11 -3 20 0 20 6 0 6 -5 11 -11 11 -8 0 -8 5 1 15 10 12 10 18 0 30
-10 12 -10 15 1 16 8 1 3 5 -11 9 -15 5 -18 8 -9 9 17 1 34 29 24 39 -3 3 -5
0 -5 -7 0 -7 -4 -10 -9 -7 -5 4 -11 0 -14 -6 -6 -16 -39 1 -43 23 -2 7 -6 24
-10 37 -4 13 -2 22 5 22 5 0 8 6 5 14 -3 8 -1 17 5 21 19 11 12 23 -10 18 -15
-4 -22 0 -26 16 -3 11 -10 21 -17 21 -6 0 -4 5 4 10 13 8 13 10 -2 10 -9 0
-20 -5 -23 -10 -4 -6 -11 -8 -16 -5 -5 4 -9 -3 -9 -14 0 -10 -5 -21 -11 -23
-14 -5 0 -36 27 -62 14 -15 14 -16 -3 -16 -11 0 -26 14 -37 34 -20 37 -43 53
-43 30 0 -8 4 -14 9 -14 5 0 6 -5 2 -11 -5 -8 -9 -8 -14 1 -15 25 -47 -1 -76
-63 -16 -34 -32 -63 -36 -65 -4 -2 -5 -9 -2 -16 3 -8 -2 -20 -10 -28 -11 -11
-12 -24 -6 -51 6 -27 4 -37 -6 -41 -8 -3 -14 -13 -14 -21 0 -9 -14 -59 -31
-112 -17 -52 -32 -101 -33 -109 -3 -21 -16 -30 -16 -11 0 9 -4 17 -10 17 -5 0
-10 5 -10 11 0 5 4 8 8 5 5 -3 14 30 21 72 6 42 16 94 22 114 5 20 9 40 8 45
-1 4 5 25 14 45 10 21 17 47 17 58 0 11 4 20 9 20 14 0 21 94 8 103 -8 6 -7 7
4 4 24 -8 44 30 27 51 -11 14 -10 15 5 9 12 -5 17 -3 15 5 -2 6 11 27 29 47
18 20 33 41 33 47 0 11 18 34 67 87 24 26 24 29 9 46 -14 15 -14 20 -4 24 8 4
7 6 -4 6 -21 1 -24 17 -5 24 9 3 9 7 0 17 -9 10 -24 0 -70 -48 -96 -98 -123
-130 -123 -140 0 -5 -7 -15 -16 -23 -24 -20 -56 -89 -51 -109 3 -13 0 -17 -9
-13 -8 3 -14 0 -14 -6 0 -6 5 -11 12 -11 7 0 5 -5 -4 -12 -16 -13 -28 -62 -33
-127 -2 -31 1 -35 36 -49 22 -8 39 -22 39 -30 0 -9 -6 -12 -16 -8 -47 18 -62
18 -69 -3 -3 -11 -6 -42 -5 -68 1 -74 -14 -169 -25 -163 -6 3 -10 61 -9 145 0
138 10 225 24 225 4 0 5 12 3 28 -4 21 -2 24 6 12 9 -13 11 -13 11 1 0 8 -5
20 -10 25 -11 11 18 104 32 104 4 0 8 6 8 14 0 25 49 105 86 141 25 25 34 39
27 46 -7 7 -18 0 -34 -23 -12 -18 -34 -44 -47 -58 -14 -14 -31 -39 -38 -55 -7
-17 -28 -53 -48 -82 -19 -28 -32 -54 -28 -59 4 -4 2 -4 -4 -1 -7 4 -17 -22
-28 -68 -11 -47 -23 -75 -31 -75 -7 0 -16 -6 -19 -12 -10 -22 5 54 20 107 8
28 20 58 25 68 5 10 7 28 4 40 -5 17 -4 19 4 7 8 -12 12 -10 21 10 5 14 28 52
50 85 64 98 63 95 44 102 -12 4 -29 -7 -58 -39 -60 -64 -75 -86 -69 -92 4 -3
1 -6 -6 -6 -8 0 -10 -7 -6 -20 6 -19 -22 -80 -37 -80 -4 0 -4 -7 -1 -17 4 -11
3 -14 -6 -9 -7 5 -10 14 -7 22 3 8 1 26 -4 40 -7 17 -7 23 1 19 6 -4 13 2 16
14 3 12 9 21 13 21 5 0 12 10 16 22 8 26 50 94 76 124 19 21 19 22 -4 28 -21
6 -22 7 -5 17 9 6 26 8 36 4 11 -3 36 3 57 14 49 27 58 16 16 -19 -26 -21 -30
-29 -18 -33 10 -4 28 7 48 28 68 71 144 111 111 58z m-218 -23 c-3 -5 -13 -10
-21 -10 -16 0 -104 -82 -104 -97 0 -6 -9 -18 -20 -28 -11 -10 -20 -23 -20 -29
0 -6 -9 -28 -20 -49 -11 -20 -20 -50 -20 -66 0 -17 -5 -33 -11 -37 -7 -4 -10
-1 -7 7 3 8 -1 22 -10 32 -9 10 -11 17 -4 17 6 0 9 7 5 16 -5 13 -9 11 -21
-12 -9 -17 -17 -24 -20 -16 -2 7 6 30 17 53 12 22 21 47 21 56 0 9 10 27 22
40 19 20 19 23 4 23 -9 0 -15 -4 -11 -9 3 -5 -5 -11 -17 -13 -13 -2 -22 -9
-21 -16 4 -15 -19 -16 -33 -2 -8 8 -15 6 -24 -5 -9 -11 -9 -15 -1 -15 7 0 9
-4 6 -10 -9 -14 -42 -12 -48 3 -3 8 -12 5 -29 -10 -13 -13 -32 -23 -41 -23 -9
0 -19 -4 -22 -10 -3 -5 -17 -10 -31 -10 -13 0 -24 5 -24 10 0 6 6 10 14 10 8
0 22 9 30 21 8 12 19 18 24 15 5 -3 12 3 15 15 4 14 1 20 -11 18 -39 -3 -46 1
-26 16 18 14 18 14 -10 15 -58 0 -23 12 91 31 57 10 65 9 92 -10 33 -24 48
-26 53 -9 3 7 18 11 36 10 22 -2 34 3 38 13 4 8 15 15 25 15 24 0 70 39 48 41
-8 1 2 5 21 9 53 11 72 11 65 0z m-535 -140 c0 -5 -12 -12 -27 -16 -16 -3 -47
-12 -70 -19 -23 -7 -44 -11 -47 -9 -4 2 -2 -1 3 -7 5 -6 39 -14 76 -19 79 -10
95 -20 34 -21 -44 -1 -109 -16 -78 -18 9 -1 27 -10 40 -20 19 -16 22 -23 14
-38 -6 -10 -9 -29 -7 -43 4 -23 5 -24 13 -5 7 15 7 12 3 -12 -3 -17 0 -34 5
-38 6 -3 11 -17 11 -31 0 -15 -4 -23 -11 -19 -5 4 -8 12 -6 18 4 13 -59 117
-99 162 -22 25 -32 29 -72 27 -42 -1 -48 1 -59 25 -15 32 -5 53 11 22 12 -24
36 -37 36 -20 0 6 -8 11 -17 12 -11 0 -13 3 -5 6 6 2 10 9 6 14 -3 5 1 9 10 9
8 0 17 -6 19 -12 4 -9 8 -10 14 -2 10 14 150 63 181 64 12 0 22 -4 22 -10z
m1529 -121 c-10 -6 -10 -9 -2 -9 7 0 10 -6 7 -13 -3 -10 5 -12 31 -9 34 4 43
-5 36 -42 -1 -5 5 -4 13 4 11 9 16 9 16 1 0 -6 11 -16 25 -21 24 -9 35 -40 14
-40 -6 0 -8 -9 -4 -20 7 -23 -2 -25 -28 -6 -14 11 -15 15 -5 19 10 4 10 8 -2
16 -23 17 -28 13 -22 -16 5 -25 4 -27 -12 -14 -13 11 -19 12 -29 2 -7 -7 -7
-11 -2 -9 16 5 75 -23 75 -36 0 -6 -4 -18 -10 -26 -8 -12 -14 -12 -45 3 -32
15 -36 15 -42 2 -5 -14 -7 -14 -24 1 -10 9 -23 13 -29 9 -6 -3 -10 -3 -9 2 3
19 -3 22 -27 13 -23 -9 -25 -8 -20 7 4 9 1 20 -6 24 -10 7 -10 11 0 21 9 9 12
9 12 0 0 -7 9 -12 20 -12 27 0 25 16 -2 24 l-23 6 23 16 c18 13 29 14 54 5 42
-15 46 -8 9 18 -42 30 -48 57 -19 80 12 11 27 17 32 14 4 -3 2 -9 -5 -14z
m-1495 -104 c-6 -15 25 -95 37 -95 4 0 15 10 23 22 12 17 16 18 16 6 0 -8 -8
-22 -19 -29 -15 -12 -17 -20 -9 -46 5 -18 13 -33 17 -33 5 0 28 18 51 40 23
22 45 40 48 40 4 0 -8 -14 -25 -30 -18 -16 -33 -39 -33 -50 0 -24 2 -24 43 -4
l32 15 -25 -20 c-28 -23 -46 -26 -55 -11 -14 22 -22 7 -21 -39 1 -27 4 -47 9
-44 9 5 29 -45 22 -57 -2 -4 16 -46 40 -94 25 -47 45 -95 45 -107 0 -11 5 -17
10 -14 6 3 10 1 10 -6 0 -7 9 -23 21 -35 20 -21 27 -40 28 -77 1 -11 10 -21
22 -24 11 -3 18 -11 15 -18 -2 -7 0 -17 4 -21 5 -5 5 -15 0 -24 -8 -13 -15
-13 -58 3 -28 9 -69 17 -92 17 -38 0 -70 17 -70 37 0 10 49 9 73 -2 15 -6 16
-10 5 -16 -9 -6 -5 -9 13 -9 19 0 26 5 25 17 0 12 7 19 22 21 12 2 22 8 22 13
0 6 -4 8 -9 4 -5 -3 -12 -1 -16 5 -9 15 -25 12 -25 -5 0 -8 -4 -15 -10 -15 -5
0 -10 7 -10 15 0 9 -6 12 -15 9 -8 -4 -15 -1 -15 5 0 6 -4 11 -10 11 -5 0 -10
-7 -10 -15 0 -19 -17 -19 -36 -1 -14 14 -54 187 -54 234 0 12 -3 22 -7 22 -5
0 -9 14 -9 31 -1 17 -6 34 -11 38 -20 12 -23 48 -7 80 15 31 15 36 0 69 -23
47 -32 182 -14 193 18 12 18 11 12 -6z m825 -51 c-17 -18 -20 -27 -11 -36 8
-8 7 -14 -6 -24 -14 -10 -15 -15 -4 -25 13 -14 17 -61 5 -73 -4 -3 -8 -14 -9
-23 -2 -10 -18 -50 -36 -90 -27 -60 -36 -71 -53 -68 -11 3 -15 2 -8 -1 8 -4 6
-18 -9 -50 -11 -25 -17 -48 -14 -51 3 -3 12 10 20 28 8 19 15 26 15 17 1 -24
-18 -72 -26 -64 -4 4 -17 -19 -29 -51 -31 -78 -29 -39 2 77 14 52 29 109 34
125 4 17 14 49 22 72 9 23 13 55 11 70 -3 20 -2 24 5 14 12 -16 15 -11 36 59
10 30 27 77 38 103 18 38 24 45 31 32 6 -12 3 -23 -14 -41z m886 -24 c4 -6 -3
-31 -14 -56 -18 -37 -19 -47 -9 -64 7 -11 17 -19 23 -17 5 2 15 -3 22 -12 8
-10 12 -11 13 -4 0 6 -4 15 -10 18 -16 10 -12 42 7 49 25 10 44 -16 49 -67 4
-41 2 -45 -16 -40 -11 3 -20 1 -20 -4 0 -5 15 -10 33 -11 40 -3 69 -17 85 -43
10 -16 9 -24 -4 -44 -16 -25 -16 -27 7 -52 23 -25 23 -25 2 -14 -12 6 -29 8
-38 5 -10 -4 -21 -1 -25 7 -5 7 -12 10 -16 7 -4 -4 1 -19 10 -33 18 -28 62
-34 85 -12 11 10 12 9 6 -3 -5 -8 -5 -12 0 -8 4 4 15 2 23 -5 12 -9 16 -9 19
1 6 16 53 15 76 -2 18 -14 17 -15 -3 -21 -20 -6 -21 -8 -4 -26 16 -18 16 -19
-4 -19 -12 0 -22 -2 -22 -4 0 -2 -2 -11 -6 -19 -9 -24 52 -31 75 -8 17 17 18
21 4 41 -19 27 -15 31 28 24 21 -4 36 -12 36 -20 0 -9 -7 -12 -19 -8 -23 7
-23 -5 0 -22 16 -13 16 -15 0 -28 -33 -25 -22 -38 25 -31 65 10 89 56 45 84
-23 14 -23 14 12 26 22 8 39 9 47 3 7 -5 21 -7 32 -3 11 3 33 -1 48 -9 20 -11
23 -15 11 -16 -12 0 -18 -8 -18 -21 l0 -21 -17 20 c-10 11 -29 23 -43 27 -19
5 -22 4 -10 -4 13 -9 13 -11 -2 -11 -22 0 -23 -9 -2 -24 14 -11 13 -15 -10
-37 -36 -33 -32 -42 13 -34 24 4 42 2 46 -4 8 -14 45 -14 45 -1 0 6 -6 11 -12
12 -7 0 -17 2 -23 3 -5 2 -16 3 -22 4 -8 1 -6 8 7 21 24 24 30 25 30 5 0 -9
12 -18 30 -21 17 -4 30 -10 30 -15 0 -4 9 -11 20 -14 11 -3 20 -11 20 -17 0
-5 -7 -8 -15 -4 -8 3 -15 1 -15 -4 0 -6 -7 -10 -16 -10 -9 0 -13 5 -9 13 4 6
0 5 -7 -4 -10 -12 -19 -14 -37 -7 -14 5 -58 11 -98 13 -62 4 -72 3 -67 -10 4
-8 1 -15 -5 -15 -7 0 -15 8 -18 18 -8 20 -23 32 -41 32 -8 0 -3 -13 14 -35 35
-46 19 -44 -35 5 -25 22 -48 40 -53 40 -20 0 -23 -2 -20 -16 5 -27 -20 -14
-31 16 -12 31 -55 54 -82 44 -9 -4 -15 0 -15 10 0 8 -18 25 -39 36 -22 11 -43
25 -47 31 -4 8 -9 7 -15 -2 -6 -10 -9 -9 -14 6 -21 63 -55 106 -55 70 0 -8 -6
-15 -14 -15 -12 0 -13 7 -6 31 11 37 -8 67 -29 46 -17 -17 -32 11 -25 47 4 21
3 26 -6 21 -7 -4 -10 -22 -8 -41 2 -19 1 -34 -3 -34 -4 0 -10 -8 -12 -17 -2
-10 -3 11 -1 47 1 36 0 59 -2 53 -8 -18 -24 -16 -24 3 0 13 -3 14 -14 5 -11
-9 -15 -6 -18 13 -3 14 0 30 5 35 8 8 3 11 -16 11 -17 0 -27 5 -27 15 0 10 10
15 28 15 35 0 56 14 49 33 -4 10 1 13 20 11 35 -4 39 -11 18 -34 -18 -20 -18
-21 1 -14 17 7 17 6 5 -9 -7 -9 -10 -17 -5 -18 32 -3 50 -10 61 -25 16 -22 23
-15 26 22 2 22 -2 28 -15 26 -9 -1 -19 2 -23 8 -3 5 1 10 10 10 9 0 14 4 10
10 -3 5 -12 7 -19 4 -8 -3 -20 9 -30 29 -20 43 -20 48 -1 41 8 -4 15 -13 15
-21 0 -8 5 -11 10 -8 8 5 7 12 -1 22 -10 12 -10 16 0 23 8 4 10 13 7 19 -5 7
3 11 23 11 16 0 33 -5 36 -10z m279 -72 c30 -24 34 -28 65 -66 12 -14 22 -19
26 -12 3 5 19 10 34 10 47 0 83 -73 44 -86 -71 -24 -86 -37 -57 -48 25 -10 34
-7 28 8 -3 8 4 16 17 19 40 11 52 -13 23 -49 -16 -20 -16 -14 3 34 6 14 4 15
-9 4 -9 -7 -19 -24 -22 -38 -6 -23 -7 -24 -31 -8 -23 15 -25 15 -26 0 -1 -9
-3 -20 -4 -26 -1 -5 -3 -16 -4 -22 -1 -9 -4 -8 -11 2 -13 20 -13 70 0 70 6 0
10 5 10 11 0 5 -4 7 -10 4 -5 -3 -12 6 -16 20 -9 35 -36 32 -58 -7 l-19 -31
-18 21 c-9 12 -20 22 -25 22 -4 0 -13 8 -20 18 -9 11 -13 12 -14 4 0 -7 11
-24 25 -37 13 -14 20 -25 16 -25 -10 0 -35 29 -51 59 -8 15 -8 21 -1 17 6 -4
11 -2 11 3 0 6 8 11 17 11 14 0 14 3 -4 23 -11 12 -18 29 -15 37 4 13 3 13
-11 1 -32 -26 -17 6 20 42 43 43 49 44 87 15z m1039 -220 c38 -8 117 -69 117
-89 0 -4 -14 -14 -30 -23 -17 -8 -28 -11 -25 -6 2 4 -4 10 -15 13 -11 3 -23 1
-26 -4 -3 -5 -20 -10 -37 -10 l-32 -1 30 -7 c30 -7 30 -7 -12 -15 -24 -4 -43
-12 -43 -17 0 -5 -6 -9 -14 -9 -16 0 -29 -27 -20 -41 3 -5 0 -9 -5 -9 -10 0
-15 14 -12 33 1 5 -3 6 -8 3 -5 -4 -12 -2 -15 3 -3 5 3 11 14 14 11 3 20 11
20 19 0 10 -3 9 -10 -2 -8 -13 -10 -12 -10 4 0 16 -5 17 -37 11 -36 -7 -113
-70 -113 -93 0 -17 19 -25 33 -14 7 5 25 12 41 16 26 6 28 5 17 -8 -8 -9 -21
-16 -31 -16 -9 0 -25 -9 -35 -20 -10 -11 -21 -17 -26 -14 -4 2 -61 -16 -126
-42 -116 -46 -120 -47 -243 -49 -69 -1 -98 -1 -65 2 82 5 95 10 71 29 -16 11
-17 14 -4 14 9 0 19 -7 22 -16 10 -26 86 -14 202 31 117 46 108 41 99 55 -5 8
-10 9 -14 2 -9 -15 -54 25 -48 43 5 11 -1 13 -26 10 -18 -3 -26 -2 -19 1 10 5
10 9 1 20 -6 8 -8 14 -3 14 4 0 -1 7 -12 15 -10 8 -28 15 -38 15 -25 0 -18 5
16 14 21 5 33 1 48 -14 16 -16 25 -18 40 -10 27 14 25 30 -2 30 -16 0 -19 3
-11 11 17 17 46 6 50 -19 2 -13 10 -30 18 -38 21 -21 19 -26 -7 -22 -17 2 -22
-1 -20 -14 2 -11 -3 -18 -14 -18 -13 0 -14 -3 -4 -15 14 -17 30 -20 30 -5 0
14 47 58 82 76 16 9 33 24 35 35 4 15 8 17 19 8 8 -6 14 -8 14 -3 0 5 15 9 33
10 95 3 134 9 155 22 l24 15 -24 13 c-23 12 -42 9 -33 -6 3 -4 -2 -10 -9 -13
-10 -4 -17 4 -21 24 -4 17 -13 30 -23 30 -9 1 -26 3 -37 6 -11 2 -40 6 -65 9
-43 5 -44 4 -25 -12 20 -16 20 -16 -3 -9 -13 4 -28 2 -35 -3 -14 -11 -77 -24
-77 -16 0 3 19 14 43 25 34 17 36 19 12 14 -27 -6 -28 -5 -11 8 22 16 223 20
289 5z m-198 -288 c18 -7 18 -8 -7 -15 -16 -4 -28 -11 -28 -16 0 -5 -9 -9 -20
-9 -11 0 -20 -4 -20 -9 0 -5 15 -9 34 -9 21 0 34 5 32 12 -2 6 -1 8 1 4 3 -5
21 -8 41 -8 l37 0 -25 21 c-19 16 -21 19 -6 15 11 -4 22 -3 25 2 9 14 61 24
61 12 0 -6 -6 -8 -12 -4 -10 5 -10 4 -2 -5 6 -7 18 -13 25 -14 8 -2 20 -6 28
-11 8 -5 17 -3 23 5 8 12 9 11 5 -1 -2 -8 7 -23 20 -33 13 -10 23 -27 23 -37
0 -10 9 -20 20 -23 11 -3 18 -1 14 4 -3 5 8 9 25 9 16 0 32 6 34 13 3 6 6 2 6
-10 1 -12 -2 -28 -5 -37 -9 -23 -75 -20 -118 5 -20 12 -36 18 -36 14 0 -4 -8
-1 -17 6 -11 10 -14 10 -9 2 4 -7 3 -13 -2 -13 -6 0 -12 6 -15 14 -3 8 -31 16
-74 20 -141 14 -179 36 -141 80 23 26 47 31 83 16z m-2630 -150 c59 0 140 -61
100 -76 -8 -3 -15 -14 -15 -23 0 -9 -7 -25 -15 -35 -8 -11 -15 -26 -15 -33 0
-7 -8 -21 -17 -31 -10 -10 -24 -27 -31 -38 -7 -10 -5 -3 4 16 9 19 22 38 28
43 8 5 7 10 -3 16 -9 6 -10 14 -3 27 12 24 5 44 -14 44 -9 0 -12 5 -9 13 4 6
-3 1 -14 -12 -24 -27 -29 -50 -5 -27 21 21 21 21 20 -13 -1 -16 -3 -27 -5 -25
-2 2 -10 -1 -18 -8 -11 -9 -12 -7 -6 7 5 14 3 17 -10 12 -10 -4 -21 1 -27 11
-10 15 -11 14 -6 -6 3 -17 1 -22 -9 -18 -8 3 -15 -3 -18 -12 -6 -29 -19 70
-14 116 3 28 0 41 -7 39 -6 -2 -12 -19 -14 -38 -2 -19 -8 -39 -14 -46 -5 -6
-8 -22 -6 -34 2 -12 -3 -24 -10 -27 -10 -3 -12 9 -6 59 4 35 12 67 18 72 8 5
6 10 -4 17 -11 7 -12 12 -3 21 7 7 17 8 25 3 7 -5 28 -9 45 -9 28 0 32 3 28
20 -5 18 -4 18 11 -2 9 -13 27 -23 39 -23z m1790 -568 c19 -37 48 -82 64 -100
16 -17 25 -34 20 -37 -15 -10 -10 -25 6 -18 9 3 25 -3 35 -12 13 -11 20 -14
20 -6 0 20 -27 65 -55 91 -23 21 -55 70 -55 83 0 2 38 -34 85 -81 47 -46 85
-87 85 -90 0 -15 -17 -28 -69 -56 -48 -26 -52 -26 -47 -9 4 13 -1 26 -14 38
-11 10 -20 22 -20 27 0 5 -11 25 -23 46 -13 20 -32 60 -42 87 -10 28 -27 59
-37 71 -22 25 -23 34 -4 34 8 0 31 -31 51 -68z m695 -247 c129 -8 256 -16 282
-18 l47 -2 7 -63 c3 -35 4 -65 1 -69 -3 -3 -9 22 -13 54 l-6 60 -57 2 c-31 1
-148 8 -261 16 -113 7 -260 17 -327 21 -121 6 -122 6 -116 -15 4 -15 1 -21
-11 -21 -9 0 -16 6 -16 13 0 8 -15 13 -40 13 -63 2 -72 27 -10 27 17 0 30 3
30 6 0 7 115 1 490 -24z"/>
<path d="M0 585 l0 -585 268 2 c162 1 238 4 192 8 -74 6 -74 6 34 8 154 3 124
19 -54 30 l-145 9 155 2 c97 2 148 6 135 11 -11 5 -49 9 -85 10 -36 2 -78 6
-95 11 -19 5 11 7 81 4 61 -3 114 -2 118 2 4 5 -45 13 -111 19 l-118 11 125 3
c132 2 135 16 5 20 -38 1 -92 5 -120 10 -39 6 -20 8 90 10 158 3 158 7 0 19
l-110 8 107 2 c59 0 110 5 113 11 4 6 -15 10 -49 10 -79 0 -78 16 2 19 79 3
96 11 26 12 -27 1 -60 5 -74 9 -19 6 -11 9 35 10 l60 2 -52 10 c-54 10 -58 15
-54 65 2 26 -30 82 -59 103 -11 8 -20 20 -20 27 0 7 -9 17 -19 23 -11 5 -23
24 -26 42 -4 18 -14 45 -21 60 -10 19 -11 34 -4 52 5 14 6 26 1 26 -14 0 -35
84 -22 88 23 8 9 20 -31 28 l-43 8 45 5 45 4 -50 12 c-48 12 -49 13 -25 23 25
11 25 11 -7 11 -43 1 -54 21 -11 21 25 0 29 3 18 10 -8 5 -28 10 -45 10 -27 1
-28 2 -13 14 10 7 15 16 11 19 -3 4 -2 7 4 7 17 0 -9 48 -32 59 -11 5 -14 10
-7 10 21 1 13 21 -9 21 -12 0 -19 5 -16 13 2 7 -12 16 -37 24 l-41 11 34 1
c36 1 33 15 -4 24 -11 3 0 6 25 7 35 1 41 3 25 10 -11 5 -38 9 -59 9 -22 1
-36 4 -33 8 4 3 35 6 69 6 l63 -1 -69 8 c-38 5 -80 11 -93 15 l-23 5 0 -585z"/>
</g>
</svg>
